<mxfile host="Electron" agent="Mozilla/5.0 (X11; Linux x86_64) AppleWebKit/537.36 (KHTML, like Gecko) draw.io/28.0.6 Chrome/138.0.7204.100 Electron/37.2.3 Safari/537.36" version="28.0.6">
  <diagram name="Page-1" id="_rqtu3N1HzKDUfa-oLQv">
    <mxGraphModel dx="1426" dy="848" grid="1" gridSize="10" guides="1" tooltips="1" connect="1" arrows="1" fold="1" page="1" pageScale="1" pageWidth="750" pageHeight="400" math="0" shadow="0">
      <root>
        <mxCell id="0" />
        <mxCell id="1" parent="0" />
        <mxCell id="3AAYtJc_0AQLSiv6PhSg-3" value="" style="rounded=0;whiteSpace=wrap;html=1;fillStyle=solid;fillColor=#FFFFFF;" parent="1" vertex="1">
          <mxGeometry x="40" y="34.75" width="940" height="605.25" as="geometry" />
        </mxCell>
        <mxCell id="WxfmGbHKgl9_zZ5WKbKh-43" value="" style="whiteSpace=wrap;html=1;aspect=fixed;strokeWidth=3;" parent="1" vertex="1">
          <mxGeometry x="659" y="77.75" width="291" height="291" as="geometry" />
        </mxCell>
        <mxCell id="LClbgoWVhjMHhPMPpPg6-24" value="" style="rounded=0;whiteSpace=wrap;html=1;strokeWidth=3;" parent="1" vertex="1">
          <mxGeometry x="70" y="70" width="379.12" height="460" as="geometry" />
        </mxCell>
        <mxCell id="0L-XgB6YBLzuITLfPznf-18" value="" style="whiteSpace=wrap;html=1;aspect=fixed;strokeWidth=3;" parent="1" vertex="1">
          <mxGeometry x="569.88" y="422" width="178.25" height="178.25" as="geometry" />
        </mxCell>
        <mxCell id="U7fOmlcXKOMJ5CHY6PRd-4" value="" style="whiteSpace=wrap;html=1;aspect=fixed;" parent="1" vertex="1">
          <mxGeometry x="250" y="82.48" width="176" height="176" as="geometry" />
        </mxCell>
        <mxCell id="0L-XgB6YBLzuITLfPznf-15" value="" style="ellipse;whiteSpace=wrap;html=1;strokeWidth=11;" parent="1" vertex="1">
          <mxGeometry x="272.07" y="104.05000000000005" width="133.93" height="124.43" as="geometry" />
        </mxCell>
        <mxCell id="0L-XgB6YBLzuITLfPznf-17" value="" style="rounded=0;whiteSpace=wrap;html=1;rotation=0;strokeColor=none;" parent="1" vertex="1">
          <mxGeometry x="304.57" y="90.04999999999994" width="45" height="30" as="geometry" />
        </mxCell>
        <mxCell id="0L-XgB6YBLzuITLfPznf-16" value="" style="triangle;whiteSpace=wrap;html=1;rotation=-30;fillColor=#000000;" parent="1" vertex="1">
          <mxGeometry x="299.07" y="93.04999999999994" width="20" height="30" as="geometry" />
        </mxCell>
        <mxCell id="U7fOmlcXKOMJ5CHY6PRd-1" value="SC_MODULE (memmodel_module)" style="text;strokeColor=none;fillColor=none;align=left;verticalAlign=middle;spacingLeft=4;spacingRight=4;overflow=hidden;points=[[0,0.5],[1,0.5]];portConstraint=eastwest;rotatable=0;whiteSpace=wrap;html=1;" parent="1" vertex="1">
          <mxGeometry x="620" y="425.25" width="130.25" height="39.5" as="geometry" />
        </mxCell>
        <mxCell id="U7fOmlcXKOMJ5CHY6PRd-2" value="SC_THREAD&amp;nbsp; &amp;nbsp; &amp;nbsp;(gen_thread)" style="text;strokeColor=none;fillColor=none;align=left;verticalAlign=middle;spacingLeft=4;spacingRight=4;overflow=hidden;points=[[0,0.5],[1,0.5]];portConstraint=eastwest;rotatable=0;whiteSpace=wrap;html=1;" parent="1" vertex="1">
          <mxGeometry x="290.95" y="156.05000000000007" width="107.37" height="59.5" as="geometry" />
        </mxCell>
        <mxCell id="U7fOmlcXKOMJ5CHY6PRd-5" value="SC_MODULE (testbench_module)" style="text;strokeColor=none;fillColor=none;align=left;verticalAlign=middle;spacingLeft=4;spacingRight=4;overflow=hidden;points=[[0,0.5],[1,0.5]];portConstraint=eastwest;rotatable=0;whiteSpace=wrap;html=1;" parent="1" vertex="1">
          <mxGeometry x="70" y="70" width="130" height="39.5" as="geometry" />
        </mxCell>
        <mxCell id="LClbgoWVhjMHhPMPpPg6-2" value="b_transport" style="rounded=0;whiteSpace=wrap;html=1;" parent="1" vertex="1">
          <mxGeometry x="590" y="485" width="120" height="60" as="geometry" />
        </mxCell>
        <mxCell id="Bv0AkjfXmIM-gZWPzif6-10" value="" style="rounded=0;whiteSpace=wrap;html=1;strokeWidth=3;" parent="1" vertex="1">
          <mxGeometry x="580" y="123.75" width="130" height="94.37" as="geometry" />
        </mxCell>
        <mxCell id="Bv0AkjfXmIM-gZWPzif6-11" value="sc_fifo&lt;div&gt;(req)&lt;/div&gt;" style="rounded=1;whiteSpace=wrap;html=1;" parent="1" vertex="1">
          <mxGeometry x="480" y="132.25" width="132.43" height="77.37" as="geometry" />
        </mxCell>
        <mxCell id="WxfmGbHKgl9_zZ5WKbKh-3" value="" style="rounded=0;whiteSpace=wrap;html=1;strokeWidth=3;" parent="1" vertex="1">
          <mxGeometry x="580" y="223.75" width="130" height="90.81" as="geometry" />
        </mxCell>
        <mxCell id="LClbgoWVhjMHhPMPpPg6-17" value="sc_fifo&lt;div&gt;(resp)&lt;/div&gt;" style="rounded=1;whiteSpace=wrap;html=1;" parent="1" vertex="1">
          <mxGeometry x="480" y="232.75" width="132.43" height="72.75" as="geometry" />
        </mxCell>
        <mxCell id="WxfmGbHKgl9_zZ5WKbKh-6" value="" style="endArrow=classic;html=1;rounded=0;entryX=0;entryY=0.5;entryDx=0;entryDy=0;" parent="1" target="Bv0AkjfXmIM-gZWPzif6-11" edge="1">
          <mxGeometry width="50" height="50" relative="1" as="geometry">
            <mxPoint x="345" y="150" as="sourcePoint" />
            <mxPoint x="387.02782435129745" y="172.71999999999997" as="targetPoint" />
          </mxGeometry>
        </mxCell>
        <mxCell id="WxfmGbHKgl9_zZ5WKbKh-7" value="RTL&lt;div&gt;memory block&lt;/div&gt;&lt;div&gt;(verilated&lt;/div&gt;&lt;div&gt;model)&lt;/div&gt;" style="text;strokeColor=none;fillColor=none;align=left;verticalAlign=middle;spacingLeft=4;spacingRight=4;overflow=hidden;points=[[0,0.5],[1,0.5]];portConstraint=eastwest;rotatable=0;whiteSpace=wrap;html=1;" parent="1" vertex="1">
          <mxGeometry x="880" y="77.9" width="80" height="80" as="geometry" />
        </mxCell>
        <mxCell id="WxfmGbHKgl9_zZ5WKbKh-9" value="" style="html=1;shadow=0;dashed=0;align=center;verticalAlign=middle;shape=mxgraph.arrows2.uTurnArrow;dy=11;arrowHead=43;dx2=25;rotation=-180;" parent="1" vertex="1">
          <mxGeometry x="790" y="157.9" width="100" height="124.15" as="geometry" />
        </mxCell>
        <mxCell id="WxfmGbHKgl9_zZ5WKbKh-16" value="" style="endArrow=classic;html=1;rounded=0;" parent="1" edge="1">
          <mxGeometry width="50" height="50" relative="1" as="geometry">
            <mxPoint x="710" y="152.89999999999998" as="sourcePoint" />
            <mxPoint x="750" y="152.89999999999998" as="targetPoint" />
          </mxGeometry>
        </mxCell>
        <mxCell id="WxfmGbHKgl9_zZ5WKbKh-17" value="" style="endArrow=classic;html=1;rounded=0;strokeWidth=4;" parent="1" edge="1">
          <mxGeometry width="50" height="50" relative="1" as="geometry">
            <mxPoint x="710" y="172.89999999999998" as="sourcePoint" />
            <mxPoint x="750" y="172.89999999999998" as="targetPoint" />
          </mxGeometry>
        </mxCell>
        <mxCell id="WxfmGbHKgl9_zZ5WKbKh-18" value="" style="endArrow=classic;html=1;rounded=0;" parent="1" edge="1">
          <mxGeometry width="50" height="50" relative="1" as="geometry">
            <mxPoint x="750" y="192.89999999999998" as="sourcePoint" />
            <mxPoint x="710" y="192.89999999999998" as="targetPoint" />
          </mxGeometry>
        </mxCell>
        <mxCell id="WxfmGbHKgl9_zZ5WKbKh-19" value="valid" style="text;html=1;align=center;verticalAlign=middle;whiteSpace=wrap;rounded=0;" parent="1" vertex="1">
          <mxGeometry x="740" y="135.39999999999998" width="60" height="30" as="geometry" />
        </mxCell>
        <mxCell id="WxfmGbHKgl9_zZ5WKbKh-21" value="data" style="text;html=1;align=center;verticalAlign=middle;whiteSpace=wrap;rounded=0;" parent="1" vertex="1">
          <mxGeometry x="740" y="157.89999999999998" width="60" height="30" as="geometry" />
        </mxCell>
        <mxCell id="WxfmGbHKgl9_zZ5WKbKh-22" value="ready" style="text;html=1;align=center;verticalAlign=middle;whiteSpace=wrap;rounded=0;" parent="1" vertex="1">
          <mxGeometry x="739" y="176.47000000000003" width="71" height="30" as="geometry" />
        </mxCell>
        <mxCell id="WxfmGbHKgl9_zZ5WKbKh-34" value="" style="endArrow=classic;html=1;rounded=0;" parent="1" edge="1">
          <mxGeometry width="50" height="50" relative="1" as="geometry">
            <mxPoint x="710" y="290.25" as="sourcePoint" />
            <mxPoint x="750" y="290.25" as="targetPoint" />
          </mxGeometry>
        </mxCell>
        <mxCell id="WxfmGbHKgl9_zZ5WKbKh-35" value="" style="endArrow=classic;html=1;rounded=0;strokeWidth=4;" parent="1" edge="1">
          <mxGeometry width="50" height="50" relative="1" as="geometry">
            <mxPoint x="750" y="270.75" as="sourcePoint" />
            <mxPoint x="710" y="270.75" as="targetPoint" />
          </mxGeometry>
        </mxCell>
        <mxCell id="WxfmGbHKgl9_zZ5WKbKh-36" value="" style="endArrow=classic;html=1;rounded=0;" parent="1" edge="1">
          <mxGeometry width="50" height="50" relative="1" as="geometry">
            <mxPoint x="750" y="250.25" as="sourcePoint" />
            <mxPoint x="710" y="250.25" as="targetPoint" />
          </mxGeometry>
        </mxCell>
        <mxCell id="WxfmGbHKgl9_zZ5WKbKh-37" value="valid" style="text;html=1;align=center;verticalAlign=middle;whiteSpace=wrap;rounded=0;" parent="1" vertex="1">
          <mxGeometry x="740" y="232.75" width="60" height="30" as="geometry" />
        </mxCell>
        <mxCell id="WxfmGbHKgl9_zZ5WKbKh-38" value="data" style="text;html=1;align=center;verticalAlign=middle;whiteSpace=wrap;rounded=0;" parent="1" vertex="1">
          <mxGeometry x="740" y="255.25" width="60" height="30" as="geometry" />
        </mxCell>
        <mxCell id="WxfmGbHKgl9_zZ5WKbKh-39" value="ready" style="text;html=1;align=center;verticalAlign=middle;whiteSpace=wrap;rounded=0;" parent="1" vertex="1">
          <mxGeometry x="739" y="273.82000000000005" width="71" height="30" as="geometry" />
        </mxCell>
        <mxCell id="WxfmGbHKgl9_zZ5WKbKh-46" value="no_clock" style="text;html=1;align=center;verticalAlign=middle;whiteSpace=wrap;rounded=0;" parent="1" vertex="1">
          <mxGeometry x="490" y="282.05" width="60" height="30" as="geometry" />
        </mxCell>
        <mxCell id="WxfmGbHKgl9_zZ5WKbKh-47" value="no_clock" style="text;html=1;align=center;verticalAlign=middle;whiteSpace=wrap;rounded=0;" parent="1" vertex="1">
          <mxGeometry x="490" y="185.9" width="60" height="30" as="geometry" />
        </mxCell>
        <mxCell id="WxfmGbHKgl9_zZ5WKbKh-49" value="&lt;div&gt;&lt;br&gt;&lt;/div&gt;SC_MODULE&lt;div&gt;queue2pins&lt;/div&gt;&lt;div&gt;sc_method&lt;/div&gt;&lt;div&gt;(clock)&lt;/div&gt;" style="text;html=1;align=center;verticalAlign=middle;whiteSpace=wrap;rounded=0;" parent="1" vertex="1">
          <mxGeometry x="630" y="155.9" width="58" height="30" as="geometry" />
        </mxCell>
        <mxCell id="WxfmGbHKgl9_zZ5WKbKh-51" value="&lt;div&gt;&lt;br&gt;&lt;/div&gt;SC_MODULE&lt;div&gt;pins2queue&lt;/div&gt;&lt;div&gt;sc_method&lt;/div&gt;&lt;div&gt;(clock)&lt;/div&gt;" style="text;html=1;align=center;verticalAlign=middle;whiteSpace=wrap;rounded=0;" parent="1" vertex="1">
          <mxGeometry x="630" y="250.19" width="60" height="30" as="geometry" />
        </mxCell>
        <mxCell id="WxfmGbHKgl9_zZ5WKbKh-52" value="SC_CLOCK" style="whiteSpace=wrap;html=1;aspect=fixed;strokeWidth=3;" parent="1" vertex="1">
          <mxGeometry x="869" y="394.75" width="80" height="80" as="geometry" />
        </mxCell>
        <mxCell id="WxfmGbHKgl9_zZ5WKbKh-55" value="&lt;font&gt;2&lt;/font&gt;" style="text;html=1;align=center;verticalAlign=middle;whiteSpace=wrap;rounded=0;strokeWidth=1;fontColor=light-dark(#ff0000, #ededed);fontSize=14;fontStyle=1" parent="1" vertex="1">
          <mxGeometry x="1094.57" y="155.89999999999998" width="21" height="30" as="geometry" />
        </mxCell>
        <mxCell id="WxfmGbHKgl9_zZ5WKbKh-56" value="&lt;font&gt;3&lt;/font&gt;" style="text;html=1;align=center;verticalAlign=middle;whiteSpace=wrap;rounded=0;strokeWidth=1;fontColor=light-dark(#ff0000, #ededed);fontSize=14;fontStyle=1" parent="1" vertex="1">
          <mxGeometry x="999.9999999999999" y="114.19000000000004" width="21" height="30" as="geometry" />
        </mxCell>
        <mxCell id="WxfmGbHKgl9_zZ5WKbKh-57" value="&lt;font&gt;4&lt;/font&gt;" style="text;html=1;align=center;verticalAlign=middle;whiteSpace=wrap;rounded=0;strokeWidth=1;fontColor=light-dark(#ff0000, #ededed);fontSize=14;fontStyle=1" parent="1" vertex="1">
          <mxGeometry x="1037.1399999999999" y="42.34000000000002" width="21" height="30" as="geometry" />
        </mxCell>
        <mxCell id="WxfmGbHKgl9_zZ5WKbKh-58" value="&lt;font&gt;6(?)&lt;/font&gt;" style="text;html=1;align=center;verticalAlign=middle;whiteSpace=wrap;rounded=0;strokeWidth=1;fontColor=light-dark(#ff0000, #ededed);fontSize=14;fontStyle=1" parent="1" vertex="1">
          <mxGeometry x="1039.8799999999999" y="130.2600000000001" width="28.69" height="30" as="geometry" />
        </mxCell>
        <mxCell id="WxfmGbHKgl9_zZ5WKbKh-59" value="&lt;font&gt;7&lt;/font&gt;" style="text;html=1;align=center;verticalAlign=middle;whiteSpace=wrap;rounded=0;strokeWidth=1;fontColor=light-dark(#ff0000, #ededed);fontSize=14;fontStyle=1" parent="1" vertex="1">
          <mxGeometry x="929" y="389.75" width="21" height="30" as="geometry" />
        </mxCell>
        <mxCell id="WxfmGbHKgl9_zZ5WKbKh-60" value="&lt;font&gt;8&lt;/font&gt;" style="text;html=1;align=center;verticalAlign=middle;whiteSpace=wrap;rounded=0;strokeWidth=1;fontColor=light-dark(#ff0000, #ededed);fontSize=14;fontStyle=1" parent="1" vertex="1">
          <mxGeometry x="688.5" y="123.75" width="21" height="30" as="geometry" />
        </mxCell>
        <mxCell id="WxfmGbHKgl9_zZ5WKbKh-63" value="9" style="text;html=1;align=center;verticalAlign=middle;whiteSpace=wrap;rounded=0;strokeWidth=1;fontColor=light-dark(#ff0000, #ededed);fontSize=14;fontStyle=1" parent="1" vertex="1">
          <mxGeometry x="890" y="197.75" width="21" height="30" as="geometry" />
        </mxCell>
        <mxCell id="WxfmGbHKgl9_zZ5WKbKh-65" value="10" style="text;html=1;align=center;verticalAlign=middle;whiteSpace=wrap;rounded=0;strokeWidth=1;fontColor=light-dark(#ff0000, #ededed);fontSize=14;fontStyle=1" parent="1" vertex="1">
          <mxGeometry x="688.5" y="220.19" width="21" height="30" as="geometry" />
        </mxCell>
        <mxCell id="WxfmGbHKgl9_zZ5WKbKh-66" value="11" style="text;html=1;align=center;verticalAlign=middle;whiteSpace=wrap;rounded=0;strokeWidth=1;fontColor=light-dark(#ff0000, #ededed);fontSize=14;fontStyle=1" parent="1" vertex="1">
          <mxGeometry x="590" y="232.75" width="21" height="30" as="geometry" />
        </mxCell>
        <mxCell id="WxfmGbHKgl9_zZ5WKbKh-67" value="&lt;font&gt;5&lt;/font&gt;" style="text;html=1;align=center;verticalAlign=middle;whiteSpace=wrap;rounded=0;strokeWidth=1;fontColor=light-dark(#ff0000, #ededed);fontSize=14;fontStyle=1" parent="1" vertex="1">
          <mxGeometry x="590" y="127.9" width="21" height="30" as="geometry" />
        </mxCell>
        <mxCell id="WxfmGbHKgl9_zZ5WKbKh-68" value="&lt;font&gt;12&lt;/font&gt;" style="text;html=1;align=center;verticalAlign=middle;whiteSpace=wrap;rounded=0;strokeWidth=1;fontColor=light-dark(#ff0000, #ededed);fontSize=14;fontStyle=1" parent="1" vertex="1">
          <mxGeometry x="1113.57" y="42.34000000000002" width="21" height="30" as="geometry" />
        </mxCell>
        <mxCell id="WxfmGbHKgl9_zZ5WKbKh-69" value="&lt;font&gt;13&lt;/font&gt;" style="text;html=1;align=center;verticalAlign=middle;whiteSpace=wrap;rounded=0;strokeWidth=1;fontColor=light-dark(#ff0000, #ededed);fontSize=14;fontStyle=1" parent="1" vertex="1">
          <mxGeometry x="1068.57" y="185.89999999999998" width="21" height="30" as="geometry" />
        </mxCell>
        <mxCell id="Mt7UQKh5Gd89CHfmGhhR-1" value="" style="whiteSpace=wrap;html=1;aspect=fixed;" vertex="1" parent="1">
          <mxGeometry x="251.03" y="328.75" width="176" height="176" as="geometry" />
        </mxCell>
        <mxCell id="Mt7UQKh5Gd89CHfmGhhR-2" value="" style="ellipse;whiteSpace=wrap;html=1;strokeWidth=11;" vertex="1" parent="1">
          <mxGeometry x="273.1" y="350.32000000000005" width="133.93" height="124.43" as="geometry" />
        </mxCell>
        <mxCell id="Mt7UQKh5Gd89CHfmGhhR-3" value="" style="rounded=0;whiteSpace=wrap;html=1;rotation=0;strokeColor=none;" vertex="1" parent="1">
          <mxGeometry x="305.6" y="336.31999999999994" width="45" height="30" as="geometry" />
        </mxCell>
        <mxCell id="Mt7UQKh5Gd89CHfmGhhR-4" value="" style="triangle;whiteSpace=wrap;html=1;rotation=-30;fillColor=#000000;" vertex="1" parent="1">
          <mxGeometry x="300.1" y="339.31999999999994" width="20" height="30" as="geometry" />
        </mxCell>
        <mxCell id="Mt7UQKh5Gd89CHfmGhhR-5" value="SC_THREAD&amp;nbsp; &amp;nbsp; &amp;nbsp;(chk_thread)" style="text;strokeColor=none;fillColor=none;align=left;verticalAlign=middle;spacingLeft=4;spacingRight=4;overflow=hidden;points=[[0,0.5],[1,0.5]];portConstraint=eastwest;rotatable=0;whiteSpace=wrap;html=1;" vertex="1" parent="1">
          <mxGeometry x="298.63" y="415.25000000000006" width="107.37" height="59.5" as="geometry" />
        </mxCell>
        <mxCell id="Mt7UQKh5Gd89CHfmGhhR-6" value="b_transp&lt;div&gt;call&lt;/div&gt;" style="ellipse;whiteSpace=wrap;html=1;strokeWidth=1;" vertex="1" parent="1">
          <mxGeometry x="300.56" y="380.6" width="79" height="37.75" as="geometry" />
        </mxCell>
        <mxCell id="WxfmGbHKgl9_zZ5WKbKh-4" value="" style="endArrow=classic;html=1;rounded=0;exitX=0;exitY=0.5;exitDx=0;exitDy=0;entryX=1;entryY=1;entryDx=0;entryDy=0;" parent="1" target="Mt7UQKh5Gd89CHfmGhhR-3" edge="1" source="LClbgoWVhjMHhPMPpPg6-17">
          <mxGeometry width="50" height="50" relative="1" as="geometry">
            <mxPoint x="490" y="400" as="sourcePoint" />
            <mxPoint x="350" y="320" as="targetPoint" />
          </mxGeometry>
        </mxCell>
        <mxCell id="Mt7UQKh5Gd89CHfmGhhR-10" value="sc_fifo&lt;div&gt;(ref)&lt;/div&gt;" style="rounded=1;whiteSpace=wrap;html=1;" vertex="1" parent="1">
          <mxGeometry x="170" y="200" width="62.43" height="100.25" as="geometry" />
        </mxCell>
        <mxCell id="Mt7UQKh5Gd89CHfmGhhR-15" value="sc_fifo&lt;div&gt;(tocken)&lt;/div&gt;" style="rounded=1;whiteSpace=wrap;html=1;" vertex="1" parent="1">
          <mxGeometry x="98" y="200" width="62.43" height="100.25" as="geometry" />
        </mxCell>
        <mxCell id="Mt7UQKh5Gd89CHfmGhhR-17" value="" style="endArrow=classic;html=1;rounded=0;entryX=0.5;entryY=0;entryDx=0;entryDy=0;exitX=0.41;exitY=-0.018;exitDx=0;exitDy=0;exitPerimeter=0;" edge="1" parent="1" source="U7fOmlcXKOMJ5CHY6PRd-2" target="Mt7UQKh5Gd89CHfmGhhR-10">
          <mxGeometry width="50" height="50" relative="1" as="geometry">
            <mxPoint x="138.25" y="143.65" as="sourcePoint" />
            <mxPoint x="227.25" y="171.65" as="targetPoint" />
          </mxGeometry>
        </mxCell>
        <mxCell id="Mt7UQKh5Gd89CHfmGhhR-18" value="" style="endArrow=classic;html=1;rounded=0;entryX=0.5;entryY=0;entryDx=0;entryDy=0;" edge="1" parent="1" target="Mt7UQKh5Gd89CHfmGhhR-15">
          <mxGeometry width="50" height="50" relative="1" as="geometry">
            <mxPoint x="330" y="150" as="sourcePoint" />
            <mxPoint x="96" y="208.15" as="targetPoint" />
          </mxGeometry>
        </mxCell>
        <mxCell id="Mt7UQKh5Gd89CHfmGhhR-20" value="" style="endArrow=classic;html=1;rounded=0;entryX=0.75;entryY=1;entryDx=0;entryDy=0;exitX=0.5;exitY=1;exitDx=0;exitDy=0;" edge="1" parent="1" source="Mt7UQKh5Gd89CHfmGhhR-10" target="Mt7UQKh5Gd89CHfmGhhR-3">
          <mxGeometry width="50" height="50" relative="1" as="geometry">
            <mxPoint x="180" y="310" as="sourcePoint" />
            <mxPoint x="220" y="246" as="targetPoint" />
          </mxGeometry>
        </mxCell>
        <mxCell id="Mt7UQKh5Gd89CHfmGhhR-21" value="" style="endArrow=classic;html=1;rounded=0;exitX=0.5;exitY=1;exitDx=0;exitDy=0;entryX=0.5;entryY=1;entryDx=0;entryDy=0;" edge="1" parent="1" source="Mt7UQKh5Gd89CHfmGhhR-15" target="Mt7UQKh5Gd89CHfmGhhR-3">
          <mxGeometry width="50" height="50" relative="1" as="geometry">
            <mxPoint x="120" y="380" as="sourcePoint" />
            <mxPoint x="180" y="400" as="targetPoint" />
          </mxGeometry>
        </mxCell>
        <mxCell id="LClbgoWVhjMHhPMPpPg6-13" value="" style="endArrow=classic;html=1;rounded=0;exitX=1;exitY=1;exitDx=0;exitDy=0;strokeWidth=4;entryX=0.5;entryY=0;entryDx=0;entryDy=0;" parent="1" target="LClbgoWVhjMHhPMPpPg6-2" edge="1" source="Mt7UQKh5Gd89CHfmGhhR-6">
          <mxGeometry width="50" height="50" relative="1" as="geometry">
            <mxPoint x="1196" y="331.79" as="sourcePoint" />
            <mxPoint x="1286.0700000000002" y="643.1599999999999" as="targetPoint" />
          </mxGeometry>
        </mxCell>
        <mxCell id="LClbgoWVhjMHhPMPpPg6-12" value="" style="endArrow=classic;html=1;rounded=0;entryX=0.5;entryY=1;entryDx=0;entryDy=0;strokeWidth=4;" parent="1" target="Mt7UQKh5Gd89CHfmGhhR-6" edge="1">
          <mxGeometry width="50" height="50" relative="1" as="geometry">
            <mxPoint x="600" y="485" as="sourcePoint" />
            <mxPoint x="443.57" y="520" as="targetPoint" />
          </mxGeometry>
        </mxCell>
        <mxCell id="LClbgoWVhjMHhPMPpPg6-7" value="TLM2.0&lt;div&gt;gen payload&lt;/div&gt;" style="shape=tape;whiteSpace=wrap;html=1;size=0.15384615384615385;" parent="1" vertex="1">
          <mxGeometry x="490" y="412.25" width="50" height="80" as="geometry" />
        </mxCell>
      </root>
    </mxGraphModel>
  </diagram>
</mxfile>
